<?xml version="1.0" encoding="UTF-8"?>
<svg id="Layer_1" data-name="Layer 1" xmlns="http://www.w3.org/2000/svg" xmlns:xlink="http://www.w3.org/1999/xlink" viewBox="0 0 1000 1000">
  <defs>
    <style>
      .cls-1 {
        fill: url(#linear-gradient-2);
      }

      .cls-2 {
        fill: #fff;
      }

      .cls-3 {
        fill: url(#linear-gradient-3);
      }

      .cls-4 {
        fill: url(#linear-gradient);
      }
    </style>
    <linearGradient id="linear-gradient" x1="179.64" y1="501.46" x2="801.64" y2="501.46" gradientUnits="userSpaceOnUse">
      <stop offset="0" stop-color="#0063ff"/>
      <stop offset="1" stop-color="#00007a"/>
    </linearGradient>
    <linearGradient id="linear-gradient-2" x1="448.53" y1="501.46" x2="920.88" y2="501.46" gradientUnits="userSpaceOnUse">
      <stop offset="0" stop-color="#00c2ff"/>
      <stop offset="1" stop-color="#0000c7"/>
    </linearGradient>
    <linearGradient id="linear-gradient-3" x1="527.97" y1="458.28" x2="478.11" y2="544.64" xlink:href="#linear-gradient-2"/>
  </defs>
  <circle class="cls-2" cx="499.5" cy="500" r="452.5"/>
  <g>
    <path class="cls-4" d="m688.89,590.06c-33.51,72.49-106.86,122.79-191.97,122.79-116.75,0-211.39-94.64-211.39-211.39s94.64-211.39,211.39-211.39c85.11,0,158.45,50.3,191.97,122.79h112.76c-38.35-132.11-160.25-228.68-304.72-228.68-175.23,0-317.28,142.05-317.28,317.28s142.05,317.28,317.28,317.28c144.47,0,266.38-96.57,304.72-228.68h-112.76Z"/>
    <path class="cls-1" d="m496.92,77.5c-16.37,0-32.51.96-48.39,2.77v63.63c15.83-2.12,31.98-3.24,48.39-3.24,185.61,0,338.45,140.16,358.53,320.4h-298.78v80.79h298.78c-20.08,180.25-172.93,320.4-358.53,320.4-16.41,0-32.56-1.12-48.39-3.24v63.64c15.88,1.8,32.03,2.77,48.39,2.77,234.15,0,423.96-189.81,423.96-423.96S731.06,77.5,496.92,77.5Z"/>
    <rect class="cls-3" x="473.28" y="461.06" width="59.51" height="80.79"/>
  </g>
</svg>