<?xml version="1.0" encoding="UTF-8"?>
<svg id="Layer_1" data-name="Layer 1" xmlns="http://www.w3.org/2000/svg" xmlns:xlink="http://www.w3.org/1999/xlink" viewBox="0 0 731 832">
  <defs>
    <style>
      .cls-1 {
        fill: url(#linear-gradient-2);
      }

      .cls-2 {
        fill: url(#linear-gradient-51);
      }

      .cls-3 {
        fill: url(#linear-gradient-17);
      }

      .cls-4 {
        fill: url(#linear-gradient-43);
      }

      .cls-5 {
        fill: url(#linear-gradient-15);
      }

      .cls-6 {
        fill: url(#linear-gradient-18);
      }

      .cls-7 {
        fill: url(#linear-gradient-56);
      }

      .cls-8 {
        fill: url(#linear-gradient-40);
      }

      .cls-9 {
        fill: url(#linear-gradient-52);
      }

      .cls-10 {
        fill: url(#linear-gradient-28);
      }

      .cls-11 {
        fill: url(#linear-gradient-14);
      }

      .cls-12 {
        fill: url(#linear-gradient-36);
      }

      .cls-13 {
        fill: url(#linear-gradient-20);
      }

      .cls-14 {
        fill: url(#linear-gradient-6);
      }

      .cls-15 {
        fill: url(#linear-gradient-53);
      }

      .cls-16 {
        fill: url(#linear-gradient-35);
      }

      .cls-17 {
        fill: url(#linear-gradient-48);
      }

      .cls-18 {
        fill: url(#linear-gradient-32);
      }

      .cls-19 {
        fill: url(#linear-gradient-11);
      }

      .cls-20 {
        fill: url(#linear-gradient-50);
      }

      .cls-21 {
        fill: url(#linear-gradient-39);
      }

      .cls-22 {
        fill: url(#linear-gradient-10);
      }

      .cls-23 {
        fill: url(#linear-gradient-49);
      }

      .cls-24 {
        fill: url(#linear-gradient-37);
      }

      .cls-25 {
        fill: url(#linear-gradient-16);
      }

      .cls-26 {
        fill: url(#linear-gradient-31);
      }

      .cls-27 {
        fill: url(#linear-gradient-41);
      }

      .cls-28 {
        fill: url(#linear-gradient-21);
      }

      .cls-29 {
        fill: url(#linear-gradient-25);
      }

      .cls-30 {
        fill: url(#linear-gradient-5);
      }

      .cls-31 {
        fill: url(#linear-gradient-54);
      }

      .cls-32 {
        fill: url(#linear-gradient-45);
      }

      .cls-33 {
        fill: url(#linear-gradient-55);
      }

      .cls-34 {
        fill: url(#linear-gradient-34);
      }

      .cls-35 {
        fill: url(#linear-gradient-7);
      }

      .cls-36 {
        fill: url(#linear-gradient-24);
      }

      .cls-37 {
        fill: url(#linear-gradient-9);
      }

      .cls-38 {
        fill: url(#linear-gradient-22);
      }

      .cls-39 {
        fill: url(#linear-gradient-42);
      }

      .cls-40 {
        fill: url(#linear-gradient-3);
      }

      .cls-41 {
        fill: url(#linear-gradient);
      }

      .cls-42 {
        fill: url(#linear-gradient-27);
      }

      .cls-43 {
        fill: url(#linear-gradient-33);
      }

      .cls-44 {
        fill: url(#linear-gradient-38);
      }

      .cls-45 {
        fill: url(#linear-gradient-29);
      }

      .cls-46 {
        fill: url(#linear-gradient-30);
      }

      .cls-47 {
        fill: url(#linear-gradient-23);
      }

      .cls-48 {
        fill: url(#linear-gradient-19);
      }

      .cls-49 {
        fill: url(#linear-gradient-4);
      }

      .cls-50 {
        fill: url(#linear-gradient-8);
      }

      .cls-51 {
        fill: url(#linear-gradient-44);
      }

      .cls-52 {
        fill: url(#linear-gradient-47);
      }

      .cls-53 {
        fill: url(#linear-gradient-46);
      }

      .cls-54 {
        fill: url(#linear-gradient-12);
      }

      .cls-55 {
        fill: url(#linear-gradient-13);
      }

      .cls-56 {
        fill: url(#linear-gradient-26);
      }
    </style>
    <linearGradient id="linear-gradient" x1="361.33" y1="499.14" x2="478.57" y2="499.14" gradientTransform="translate(839.9 998.28) rotate(-180)" gradientUnits="userSpaceOnUse">
      <stop offset="0" stop-color="#007cc2"/>
      <stop offset=".08" stop-color="#006ec8"/>
      <stop offset=".23" stop-color="#004bd9"/>
      <stop offset=".44" stop-color="#0013f5"/>
      <stop offset=".5" stop-color="blue"/>
      <stop offset=".66" stop-color="#0600bc"/>
      <stop offset=".82" stop-color="#0c0183"/>
      <stop offset=".94" stop-color="#0f015f"/>
      <stop offset="1" stop-color="#110252"/>
    </linearGradient>
    <linearGradient id="linear-gradient-2" x1="366.85" y1="441.16" x2="484.09" y2="441.16" gradientTransform="translate(850.95 882.32) rotate(-180)" xlink:href="#linear-gradient"/>
    <linearGradient id="linear-gradient-3" x1="369.62" y1="361.09" x2="486.85" y2="361.09" gradientTransform="translate(856.47 722.18) rotate(-180)" xlink:href="#linear-gradient"/>
    <linearGradient id="linear-gradient-4" x1="387.92" y1="398.15" x2="580.11" y2="398.15" gradientTransform="matrix(1, 0, 0, 1, 0, 0)" xlink:href="#linear-gradient"/>
    <linearGradient id="linear-gradient-5" x1="384.22" y1="468.54" x2="509.21" y2="468.54" gradientTransform="matrix(1, 0, 0, 1, 0, 0)" xlink:href="#linear-gradient"/>
    <linearGradient id="linear-gradient-6" x1="384.22" y1="392.74" x2="509.21" y2="392.74" gradientTransform="matrix(1, 0, 0, 1, 0, 0)" xlink:href="#linear-gradient"/>
    <linearGradient id="linear-gradient-7" x1="376.07" y1="575.28" x2="491.49" y2="575.28" gradientTransform="matrix(1, 0, 0, 1, 0, 0)" xlink:href="#linear-gradient"/>
    <linearGradient id="linear-gradient-8" x1="371.67" y1="454.46" x2="496.66" y2="454.46" gradientTransform="matrix(1, 0, 0, 1, 0, 0)" xlink:href="#linear-gradient"/>
    <linearGradient id="linear-gradient-9" x1="376.07" y1="529.8" x2="501.06" y2="529.8" gradientTransform="matrix(1, 0, 0, 1, 0, 0)" xlink:href="#linear-gradient"/>
    <linearGradient id="linear-gradient-10" x1="371.67" y1="406.81" x2="496.66" y2="406.81" gradientTransform="matrix(1, 0, 0, 1, 0, 0)" xlink:href="#linear-gradient"/>
    <linearGradient id="linear-gradient-11" x1="544.94" y1="407.9" x2="586.24" y2="407.9" gradientTransform="matrix(1, 0, 0, 1, 0, 0)" xlink:href="#linear-gradient"/>
    <linearGradient id="linear-gradient-12" x1="369.51" y1="428.47" x2="494.5" y2="428.47" gradientTransform="matrix(1, 0, 0, 1, 0, 0)" xlink:href="#linear-gradient"/>
    <linearGradient id="linear-gradient-13" x1="375.44" y1="345.62" x2="500.43" y2="345.62" gradientTransform="matrix(1, 0, 0, 1, 0, 0)" xlink:href="#linear-gradient"/>
    <linearGradient id="linear-gradient-14" x1="379.77" y1="559.84" x2="500.24" y2="559.84" gradientTransform="matrix(1, 0, 0, 1, 0, 0)" xlink:href="#linear-gradient"/>
    <linearGradient id="linear-gradient-15" x1="387.98" y1="331.54" x2="512.97" y2="331.54" gradientTransform="matrix(1, 0, 0, 1, 0, 0)" xlink:href="#linear-gradient"/>
    <linearGradient id="linear-gradient-16" x1="557.49" y1="393.82" x2="594.21" y2="393.82" gradientTransform="matrix(1, 0, 0, 1, 0, 0)" xlink:href="#linear-gradient"/>
    <linearGradient id="linear-gradient-17" x1="544.94" y1="453.38" x2="560.49" y2="453.38" gradientTransform="matrix(1, 0, 0, 1, 0, 0)" xlink:href="#linear-gradient"/>
    <linearGradient id="linear-gradient-18" x1="561.25" y1="332.63" x2="628.85" y2="332.63" gradientTransform="matrix(1, 0, 0, 1, 0, 0)" xlink:href="#linear-gradient"/>
    <linearGradient id="linear-gradient-19" x1="561.25" y1="284.98" x2="655.83" y2="284.98" gradientTransform="matrix(1, 0, 0, 1, 0, 0)" xlink:href="#linear-gradient"/>
    <linearGradient id="linear-gradient-20" x1="563.42" y1="306.64" x2="643.57" y2="306.64" gradientTransform="matrix(1, 0, 0, 1, 0, 0)" xlink:href="#linear-gradient"/>
    <linearGradient id="linear-gradient-21" x1="548.71" y1="346.71" x2="620.88" y2="346.71" gradientTransform="matrix(1, 0, 0, 1, 0, 0)" xlink:href="#linear-gradient"/>
    <linearGradient id="linear-gradient-22" x1="373.88" y1="765.18" x2="383.98" y2="765.18" gradientTransform="matrix(1, 0, 0, 1, 0, 0)" xlink:href="#linear-gradient"/>
    <linearGradient id="linear-gradient-23" x1="364.93" y1="715.31" x2="412.22" y2="715.31" gradientTransform="matrix(1, 0, 0, 1, 0, 0)" xlink:href="#linear-gradient"/>
    <linearGradient id="linear-gradient-24" x1="363.53" y1="515.72" x2="488.52" y2="515.72" gradientTransform="matrix(1, 0, 0, 1, 0, 0)" xlink:href="#linear-gradient"/>
    <linearGradient id="linear-gradient-25" x1="548.71" y1="270.9" x2="663.8" y2="270.9" gradientTransform="matrix(1, 0, 0, 1, 0, 0)" xlink:href="#linear-gradient"/>
    <linearGradient id="linear-gradient-26" x1="490.12" y1="510.32" x2="534.57" y2="510.32" gradientTransform="matrix(1, 0, 0, 1, 0, 0)" xlink:href="#linear-gradient"/>
    <linearGradient id="linear-gradient-27" x1="379.39" y1="458.66" x2="569.24" y2="458.66" gradientTransform="matrix(1, 0, 0, 1, 0, 0)" xlink:href="#linear-gradient"/>
    <linearGradient id="linear-gradient-28" x1="391.68" y1="336.96" x2="614.75" y2="336.96" gradientTransform="matrix(1, 0, 0, 1, 0, 0)" xlink:href="#linear-gradient"/>
    <linearGradient id="linear-gradient-29" x1="371.25" y1="543.4" x2="511.11" y2="543.4" gradientTransform="matrix(1, 0, 0, 1, 0, 0)" xlink:href="#linear-gradient"/>
    <linearGradient id="linear-gradient-30" x1="353.29" y1="187.31" x2="425.64" y2="187.31" gradientTransform="matrix(1, 0, 0, 1, 0, 0)" xlink:href="#linear-gradient"/>
    <linearGradient id="linear-gradient-31" x1="358.49" y1="169.09" x2="419.85" y2="169.09" gradientTransform="matrix(1, 0, 0, 1, 0, 0)" xlink:href="#linear-gradient"/>
    <linearGradient id="linear-gradient-32" x1="363.67" y1="150.89" x2="414.07" y2="150.89" gradientTransform="matrix(1, 0, 0, 1, 0, 0)" xlink:href="#linear-gradient"/>
    <linearGradient id="linear-gradient-33" x1="343.25" y1="222.53" x2="436.85" y2="222.53" gradientTransform="matrix(1, 0, 0, 1, 0, 0)" xlink:href="#linear-gradient"/>
    <linearGradient id="linear-gradient-34" x1="348.3" y1="204.83" x2="431.21" y2="204.83" gradientTransform="matrix(1, 0, 0, 1, 0, 0)" xlink:href="#linear-gradient"/>
    <linearGradient id="linear-gradient-35" x1="372.62" y1="119.78" x2="404.09" y2="119.78" gradientTransform="matrix(1, 0, 0, 1, 0, 0)" xlink:href="#linear-gradient"/>
    <linearGradient id="linear-gradient-36" x1="368.18" y1="135.33" x2="409.04" y2="135.33" gradientTransform="matrix(1, 0, 0, 1, 0, 0)" xlink:href="#linear-gradient"/>
    <linearGradient id="linear-gradient-37" x1="333.78" y1="255.74" x2="447.41" y2="255.74" gradientTransform="matrix(1, 0, 0, 1, 0, 0)" xlink:href="#linear-gradient"/>
    <linearGradient id="linear-gradient-38" x1="338.45" y1="239.37" x2="442.2" y2="239.37" gradientTransform="matrix(1, 0, 0, 1, 0, 0)" xlink:href="#linear-gradient"/>
    <linearGradient id="linear-gradient-39" x1="360.11" y1="728.91" x2="404.53" y2="728.91" gradientTransform="matrix(1, 0, 0, 1, 0, 0)" xlink:href="#linear-gradient"/>
    <linearGradient id="linear-gradient-40" x1="352.39" y1="701.23" x2="420.19" y2="701.23" gradientTransform="matrix(1, 0, 0, 1, 0, 0)" xlink:href="#linear-gradient"/>
    <linearGradient id="linear-gradient-41" x1="341.34" y1="687.42" x2="409.76" y2="687.42" gradientTransform="matrix(1, 0, 0, 1, 0, 0)" xlink:href="#linear-gradient"/>
    <linearGradient id="linear-gradient-42" x1="363.53" y1="589.36" x2="483.52" y2="589.36" gradientTransform="matrix(1, 0, 0, 1, 0, 0)" xlink:href="#linear-gradient"/>
    <linearGradient id="linear-gradient-43" x1="376.61" y1="105.75" x2="399.63" y2="105.75" gradientTransform="matrix(1, 0, 0, 1, 0, 0)" xlink:href="#linear-gradient"/>
    <linearGradient id="linear-gradient-44" x1="373.88" y1="740.33" x2="398.05" y2="740.33" gradientTransform="matrix(1, 0, 0, 1, 0, 0)" xlink:href="#linear-gradient"/>
    <linearGradient id="linear-gradient-45" x1="350.22" y1="675.24" x2="434.9" y2="675.24" gradientTransform="matrix(1, 0, 0, 1, 0, 0)" xlink:href="#linear-gradient"/>
    <linearGradient id="linear-gradient-46" x1="368.95" y1="605.97" x2="437.37" y2="605.97" gradientTransform="matrix(1, 0, 0, 1, 0, 0)" xlink:href="#linear-gradient"/>
    <linearGradient id="linear-gradient-47" x1="380.8" y1="91.07" x2="394.96" y2="91.07" gradientTransform="matrix(1, 0, 0, 1, 0, 0)" xlink:href="#linear-gradient"/>
    <linearGradient id="linear-gradient-48" x1="368.63" y1="624.06" x2="463.88" y2="624.06" gradientTransform="matrix(1, 0, 0, 1, 0, 0)" xlink:href="#linear-gradient"/>
    <linearGradient id="linear-gradient-49" x1="364.93" y1="639.5" x2="455.13" y2="639.5" gradientTransform="matrix(1, 0, 0, 1, 0, 0)" xlink:href="#linear-gradient"/>
    <linearGradient id="linear-gradient-50" x1="352.39" y1="653.58" x2="447.16" y2="653.58" gradientTransform="matrix(1, 0, 0, 1, 0, 0)" xlink:href="#linear-gradient"/>
    <linearGradient id="linear-gradient-51" x1="384.4" y1="78.45" x2="390.95" y2="78.45" gradientTransform="matrix(1, 0, 0, 1, 0, 0)" xlink:href="#linear-gradient"/>
    <linearGradient id="linear-gradient-52" x1="374.06" y1="267.84" x2="499.05" y2="267.84" gradientTransform="matrix(1, 0, 0, 1, 0, 0)" xlink:href="#linear-gradient"/>
    <linearGradient id="linear-gradient-53" x1="383.16" y1="276.31" x2="670" y2="276.31" gradientTransform="matrix(1, 0, 0, 1, 0, 0)" xlink:href="#linear-gradient"/>
    <linearGradient id="linear-gradient-54" x1="373.88" y1="752.75" x2="391.02" y2="752.75" gradientTransform="matrix(1, 0, 0, 1, 0, 0)" xlink:href="#linear-gradient"/>
    <linearGradient id="linear-gradient-55" x1="375.03" y1="282.23" x2="512.97" y2="282.23" gradientTransform="matrix(1, 0, 0, 1, 0, 0)" xlink:href="#linear-gradient"/>
    <linearGradient id="linear-gradient-56" x1="47.85" y1="421.5" x2="387.75" y2="421.5" gradientUnits="userSpaceOnUse">
      <stop offset="0" stop-color="aqua"/>
      <stop offset=".02" stop-color="#00e9ff"/>
      <stop offset=".11" stop-color="#0097ff"/>
      <stop offset=".19" stop-color="#0056ff"/>
      <stop offset=".25" stop-color="#0027ff"/>
      <stop offset=".3" stop-color="#000aff"/>
      <stop offset=".33" stop-color="blue"/>
      <stop offset=".55" stop-color="#0600bc"/>
      <stop offset=".76" stop-color="#0c0183"/>
      <stop offset=".92" stop-color="#0f015f"/>
      <stop offset="1" stop-color="#110252"/>
    </linearGradient>
  </defs>
  <rect class="cls-41" x="361.33" y="496.3" width="117.24" height="5.68" transform="translate(839.9 998.28) rotate(180)"/>
  <rect class="cls-1" x="366.85" y="438.32" width="117.24" height="5.68" transform="translate(850.95 882.32) rotate(180)"/>
  <rect class="cls-40" x="369.62" y="358.25" width="117.24" height="5.68" transform="translate(856.47 722.18) rotate(180)"/>
  <g>
    <polygon class="cls-49" points="509.09 416.02 555.86 380.36 555.89 374.57 387.92 374.57 387.92 380.02 546.71 380.02 503.51 412.96 500.25 415.44 500.25 421.47 501.4 421.47 501.6 421.73 501.94 421.47 577.03 421.47 580.11 416.02 509.09 416.02"/>
    <rect class="cls-30" x="384.22" y="465.83" width="124.99" height="5.41"/>
    <rect class="cls-14" x="384.22" y="390.03" width="124.99" height="5.41"/>
    <polygon class="cls-35" points="376.07 577.99 488.42 577.99 491.49 572.57 376.07 572.57 376.07 577.99"/>
    <rect class="cls-50" x="371.67" y="451.76" width="124.99" height="5.41"/>
    <rect class="cls-37" x="376.07" y="527.09" width="124.99" height="5.41"/>
    <rect class="cls-22" x="371.67" y="404.11" width="124.99" height="5.41"/>
    <polygon class="cls-19" points="544.94 405.19 544.94 410.6 583.18 410.6 586.24 405.19 544.94 405.19"/>
    <rect class="cls-54" x="369.51" y="425.77" width="124.99" height="5.41"/>
    <rect class="cls-55" x="375.44" y="342.92" width="124.99" height="5.41"/>
    <polygon class="cls-11" points="379.77 562.57 497.15 562.57 500.24 557.11 379.77 557.11 379.77 562.57"/>
    <rect class="cls-5" x="387.98" y="328.84" width="124.99" height="5.41"/>
    <polygon class="cls-25" points="557.49 396.53 591.15 396.53 594.21 391.11 557.49 391.11 557.49 396.53"/>
    <polygon class="cls-3" points="544.94 456.09 557.43 456.09 560.49 450.67 544.94 450.67 544.94 456.09"/>
    <polygon class="cls-6" points="561.25 335.33 625.79 335.33 628.85 329.92 561.25 329.92 561.25 335.33"/>
    <polygon class="cls-48" points="561.25 282.27 561.25 287.69 652.76 287.69 655.83 282.27 561.25 282.27"/>
    <polygon class="cls-13" points="563.42 303.93 563.42 309.34 640.5 309.34 643.57 303.93 563.42 303.93"/>
    <polygon class="cls-28" points="548.71 349.41 617.82 349.41 620.88 344 548.71 344 548.71 349.41"/>
    <polygon class="cls-38" points="373.88 762.47 373.88 767.89 380.92 767.89 383.98 762.47 373.88 762.47"/>
    <polygon class="cls-47" points="364.93 718.01 409.15 718.01 412.22 712.6 364.93 712.6 364.93 718.01"/>
    <rect class="cls-36" x="363.53" y="513.01" width="124.99" height="5.41"/>
    <polygon class="cls-29" points="548.71 273.61 660.73 273.61 663.8 268.19 548.71 268.19 548.71 273.61"/>
    <polygon class="cls-56" points="490.15 502.26 518.89 524.17 521.78 519.06 499.3 501.92 531.48 501.92 534.57 496.47 490.12 496.47 490.15 502.26"/>
    <polygon class="cls-42" points="498.29 441.01 545.06 476.66 379.39 476.66 379.39 482.11 542.7 482.11 548.45 471.94 507.44 440.67 566.16 440.67 569.24 435.22 498.26 435.22 498.29 441.01"/>
    <polygon class="cls-10" points="391.68 318.83 550.48 318.83 507.28 351.77 504.02 354.25 504.02 360.28 505.17 360.28 505.36 360.54 505.71 360.28 611.67 360.28 614.75 354.82 512.86 354.82 559.62 319.17 559.66 313.38 391.68 313.38 391.68 318.83"/>
    <polygon class="cls-45" points="371.25 546.13 508.02 546.13 511.11 540.67 371.25 540.67 371.25 546.13"/>
    <polygon class="cls-46" points="423.92 184.6 354.84 184.6 353.29 190.02 425.64 190.02 423.92 184.6"/>
    <polygon class="cls-26" points="418.13 166.38 360.03 166.38 358.49 171.8 419.85 171.8 418.13 166.38"/>
    <polygon class="cls-18" points="412.33 148.16 365.23 148.16 363.67 153.62 414.07 153.62 412.33 148.16"/>
    <polygon class="cls-43" points="435.12 219.83 344.79 219.83 343.25 225.24 436.85 225.24 435.12 219.83"/>
    <polygon class="cls-34" points="429.49 202.12 349.84 202.12 348.3 207.53 431.21 207.53 429.49 202.12"/>
    <polygon class="cls-16" points="402.53 117.32 374.02 117.32 372.62 122.24 404.09 122.24 402.53 117.32"/>
    <polygon class="cls-12" points="407.47 132.87 369.59 132.87 368.18 137.79 409.04 137.79 407.47 132.87"/>
    <polygon class="cls-24" points="445.68 253.01 335.33 253.01 333.78 258.47 447.41 258.47 445.68 253.01"/>
    <polygon class="cls-44" points="440.48 236.67 339.99 236.67 338.45 242.08 442.2 242.08 440.48 236.67"/>
    <polygon class="cls-21" points="404.53 726.19 360.11 726.19 360.11 731.64 401.44 731.64 404.53 726.19"/>
    <polygon class="cls-8" points="420.19 698.52 352.39 698.52 352.39 703.93 417.12 703.93 420.19 698.52"/>
    <polygon class="cls-27" points="409.76 684.72 341.34 684.72 341.34 690.13 406.56 690.13 409.76 684.72"/>
    <polygon class="cls-39" points="363.53 592.06 480.45 592.06 483.52 586.65 363.53 586.65 363.53 592.06"/>
    <polygon class="cls-4" points="398.06 103.27 378.03 103.27 376.61 108.23 399.63 108.23 398.06 103.27"/>
    <polygon class="cls-51" points="373.88 743.04 394.99 743.04 398.05 737.62 373.88 737.62 373.88 743.04"/>
    <polygon class="cls-32" points="350.22 677.94 431.84 677.94 434.9 672.53 350.22 672.53 350.22 677.94"/>
    <polygon class="cls-53" points="368.95 603.26 368.95 608.68 434.17 608.68 437.37 603.26 368.95 603.26"/>
    <polygon class="cls-52" points="393.39 88.59 382.21 88.59 380.8 93.54 394.96 93.54 393.39 88.59"/>
    <polygon class="cls-17" points="368.63 626.79 460.79 626.79 463.88 621.34 368.63 621.34 368.63 626.79"/>
    <polygon class="cls-23" points="364.93 642.21 452.07 642.21 455.13 636.79 364.93 636.79 364.93 642.21"/>
    <polygon class="cls-20" points="352.39 656.29 444.1 656.29 447.16 650.87 352.39 650.87 352.39 656.29"/>
    <polygon class="cls-2" points="389.38 75.99 385.81 75.99 384.4 80.91 390.95 80.91 389.38 75.99"/>
    <rect class="cls-9" x="374.06" y="265.13" width="124.99" height="5.41"/>
    <polygon class="cls-15" points="548.82 294.18 383.16 294.18 383.16 299.63 555.98 299.63 556.32 299.89 556.52 299.63 557.66 299.63 557.66 293.61 554.41 291.13 511.21 258.19 669.46 258.19 670 257.23 670 252.74 502.03 252.74 502.06 258.53 548.82 294.18"/>
    <polygon class="cls-31" points="373.88 755.46 387.95 755.46 391.02 750.05 373.88 750.05 373.88 755.46"/>
    <rect class="cls-33" x="375.03" y="279.21" width="137.94" height="6.03"/>
  </g>
  <path class="cls-7" d="m376.74,773.12l.95-1.6,10.07-700.7-.3-.93-70.41,245.73-125.63-190.51,1.38,193.27L47.85,152.71c0,5.52,328.89,620.41,328.89,620.41Z"/>
</svg>