<?xml version="1.0" encoding="UTF-8"?>
<svg id="Layer_1" data-name="Layer 1" xmlns="http://www.w3.org/2000/svg" xmlns:xlink="http://www.w3.org/1999/xlink" viewBox="0 0 1018 541">
  <defs>
    <style>
      .cls-1 {
        fill: url(#linear-gradient-2);
      }

      .cls-2 {
        fill: url(#linear-gradient-17);
      }

      .cls-3 {
        fill: url(#linear-gradient-15);
      }

      .cls-4 {
        fill: url(#linear-gradient-18);
      }

      .cls-5 {
        fill: url(#linear-gradient-28);
      }

      .cls-6 {
        fill: url(#linear-gradient-14);
      }

      .cls-7 {
        fill: url(#linear-gradient-36);
      }

      .cls-8 {
        fill: url(#linear-gradient-20);
      }

      .cls-9 {
        fill: url(#linear-gradient-6);
      }

      .cls-10 {
        fill: url(#linear-gradient-35);
      }

      .cls-11 {
        fill: url(#linear-gradient-32);
      }

      .cls-12 {
        fill: url(#linear-gradient-11);
      }

      .cls-13 {
        fill: url(#linear-gradient-39);
      }

      .cls-14 {
        fill: url(#linear-gradient-10);
      }

      .cls-15 {
        fill: url(#linear-gradient-37);
      }

      .cls-16 {
        fill: url(#linear-gradient-16);
      }

      .cls-17 {
        fill: url(#linear-gradient-31);
      }

      .cls-18 {
        fill: url(#linear-gradient-21);
      }

      .cls-19 {
        fill: url(#linear-gradient-25);
      }

      .cls-20 {
        fill: url(#linear-gradient-5);
      }

      .cls-21 {
        fill: url(#linear-gradient-34);
      }

      .cls-22 {
        fill: url(#linear-gradient-7);
      }

      .cls-23 {
        fill: url(#linear-gradient-24);
      }

      .cls-24 {
        fill: url(#linear-gradient-9);
      }

      .cls-25 {
        fill: url(#linear-gradient-22);
      }

      .cls-26 {
        fill: url(#linear-gradient-3);
      }

      .cls-27 {
        fill: url(#linear-gradient);
      }

      .cls-28 {
        fill: url(#linear-gradient-27);
      }

      .cls-29 {
        fill: url(#linear-gradient-33);
      }

      .cls-30 {
        fill: url(#linear-gradient-38);
      }

      .cls-31 {
        fill: url(#linear-gradient-29);
      }

      .cls-32 {
        fill: url(#linear-gradient-30);
      }

      .cls-33 {
        fill: url(#linear-gradient-23);
      }

      .cls-34 {
        fill: url(#linear-gradient-19);
      }

      .cls-35 {
        fill: url(#linear-gradient-4);
      }

      .cls-36 {
        fill: url(#linear-gradient-8);
      }

      .cls-37 {
        fill: url(#linear-gradient-12);
      }

      .cls-38 {
        fill: url(#linear-gradient-13);
      }

      .cls-39 {
        fill: url(#linear-gradient-26);
      }
    </style>
    <linearGradient id="linear-gradient" x1="236.98" y1="212.86" x2="128.53" y2="104.41" gradientUnits="userSpaceOnUse">
      <stop offset="0" stop-color="aqua"/>
      <stop offset=".02" stop-color="#00e9ff"/>
      <stop offset=".11" stop-color="#0097ff"/>
      <stop offset=".19" stop-color="#0056ff"/>
      <stop offset=".25" stop-color="#0027ff"/>
      <stop offset=".3" stop-color="#000aff"/>
      <stop offset=".33" stop-color="blue"/>
      <stop offset=".55" stop-color="#0600bc"/>
      <stop offset=".76" stop-color="#0c0183"/>
      <stop offset=".92" stop-color="#0f015f"/>
      <stop offset="1" stop-color="#110252"/>
    </linearGradient>
    <linearGradient id="linear-gradient-2" x1="367.84" y1="238.56" x2="230.17" y2="100.89" xlink:href="#linear-gradient"/>
    <linearGradient id="linear-gradient-3" x1="505.43" y1="214.17" x2="394.92" y2="103.67" xlink:href="#linear-gradient"/>
    <linearGradient id="linear-gradient-4" x1="714.55" y1="203.93" x2="562.43" y2="51.82" xlink:href="#linear-gradient"/>
    <linearGradient id="linear-gradient-5" x1="893.95" y1="224.52" x2="755.23" y2="85.8" xlink:href="#linear-gradient"/>
    <linearGradient id="linear-gradient-6" x1="137.45" y1="338.56" x2="88.88" y2="289.99" xlink:href="#linear-gradient"/>
    <linearGradient id="linear-gradient-7" x1="202.32" y1="346.13" x2="134.65" y2="278.46" xlink:href="#linear-gradient"/>
    <linearGradient id="linear-gradient-8" x1="270.61" y1="334.86" x2="212.47" y2="276.72" xlink:href="#linear-gradient"/>
    <linearGradient id="linear-gradient-9" x1="333.33" y1="344.54" x2="272.81" y2="284.02" xlink:href="#linear-gradient"/>
    <linearGradient id="linear-gradient-10" x1="398.85" y1="352.98" x2="331.7" y2="285.83" xlink:href="#linear-gradient"/>
    <linearGradient id="linear-gradient-11" x1="471.46" y1="346.13" x2="403.79" y2="278.46" xlink:href="#linear-gradient"/>
    <linearGradient id="linear-gradient-12" x1="541.19" y1="358.64" x2="486.16" y2="303.61" xlink:href="#linear-gradient"/>
    <linearGradient id="linear-gradient-13" x1="605.14" y1="334.86" x2="547" y2="276.72" xlink:href="#linear-gradient"/>
    <linearGradient id="linear-gradient-14" x1="649.94" y1="338.56" x2="601.37" y2="289.99" xlink:href="#linear-gradient"/>
    <linearGradient id="linear-gradient-15" x1="712.39" y1="341.08" x2="658.48" y2="287.18" xlink:href="#linear-gradient"/>
    <linearGradient id="linear-gradient-16" x1="798.89" y1="346.13" x2="731.22" y2="278.46" xlink:href="#linear-gradient"/>
    <linearGradient id="linear-gradient-17" x1="868.63" y1="358.64" x2="813.59" y2="303.61" xlink:href="#linear-gradient"/>
    <linearGradient id="linear-gradient-18" x1="930.66" y1="350.87" x2="869.79" y2="289.99" xlink:href="#linear-gradient"/>
    <linearGradient id="linear-gradient-19" x1="138.36" y1="457" x2="97.66" y2="416.3" xlink:href="#linear-gradient"/>
    <linearGradient id="linear-gradient-20" x1="182.26" y1="463.77" x2="139.9" y2="421.41" xlink:href="#linear-gradient"/>
    <linearGradient id="linear-gradient-21" x1="229.68" y1="460.91" x2="192.65" y2="423.88" xlink:href="#linear-gradient"/>
    <linearGradient id="linear-gradient-22" x1="283.21" y1="467.85" x2="232.7" y2="417.34" xlink:href="#linear-gradient"/>
    <linearGradient id="linear-gradient-23" x1="336.88" y1="464.89" x2="289.51" y2="417.52" xlink:href="#linear-gradient"/>
    <linearGradient id="linear-gradient-24" x1="390" y1="461.36" x2="352.26" y2="423.62" xlink:href="#linear-gradient"/>
    <linearGradient id="linear-gradient-25" x1="438.62" y1="468.21" x2="396.01" y2="425.59" xlink:href="#linear-gradient"/>
    <linearGradient id="linear-gradient-26" x1="488.63" y1="461.36" x2="450.89" y2="423.62" xlink:href="#linear-gradient"/>
    <linearGradient id="linear-gradient-27" x1="548.66" y1="462.01" x2="510.48" y2="423.83" xlink:href="#linear-gradient"/>
    <linearGradient id="linear-gradient-28" x1="579.92" y1="459.59" x2="545.92" y2="425.59" xlink:href="#linear-gradient"/>
    <linearGradient id="linear-gradient-29" x1="617.33" y1="463.77" x2="574.97" y2="421.41" xlink:href="#linear-gradient"/>
    <linearGradient id="linear-gradient-30" x1="653.79" y1="459.58" x2="620.27" y2="426.06" xlink:href="#linear-gradient"/>
    <linearGradient id="linear-gradient-31" x1="712.86" y1="463.73" x2="677.84" y2="428.71" xlink:href="#linear-gradient"/>
    <linearGradient id="linear-gradient-32" x1="733.17" y1="456.93" x2="698.88" y2="422.64" xlink:href="#linear-gradient"/>
    <linearGradient id="linear-gradient-33" x1="773.68" y1="456.05" x2="747.01" y2="429.37" xlink:href="#linear-gradient"/>
    <linearGradient id="linear-gradient-34" x1="805.95" y1="462.45" x2="778.59" y2="435.09" xlink:href="#linear-gradient"/>
    <linearGradient id="linear-gradient-35" x1="826.9" y1="463.73" x2="791.87" y2="428.71" xlink:href="#linear-gradient"/>
    <linearGradient id="linear-gradient-36" x1="869.26" y1="468.21" x2="826.65" y2="425.59" xlink:href="#linear-gradient"/>
    <linearGradient id="linear-gradient-37" x1="899.43" y1="462.45" x2="872.07" y2="435.09" xlink:href="#linear-gradient"/>
    <linearGradient id="linear-gradient-38" x1="940.65" y1="462.32" x2="906.92" y2="428.58" xlink:href="#linear-gradient"/>
    <linearGradient id="linear-gradient-39" x1="950.79" y1="467.37" x2="944.62" y2="461.2" xlink:href="#linear-gradient"/>
  </defs>
  <path class="cls-27" d="m218.99,122.33l-4.19.63-7.64-27.52c-8.65-2.16-16.5-3.24-23.55-3.24-17.09,0-30.52,5.97-40.29,17.9-9.77,11.93-14.65,27.42-14.65,46.47,0,20.37,5.58,36.63,16.74,48.77,11.16,12.14,26.62,18.21,46.36,18.21,11.09,0,22.78-2.13,35.06-6.38l1.15,4.71c-13.75,9.49-29.3,14.23-46.67,14.23-22.54,0-40.76-6.87-54.68-20.62-13.92-13.74-20.88-31.85-20.88-54.31,0-23.93,7.66-42.87,22.97-56.83,15.31-13.95,35.25-20.93,59.81-20.93,11.79,0,23.86,1.43,36.21,4.29l.73.84-6.49,33.8Z"/>
  <path class="cls-1" d="m281.68,200.19c0,4.19.02,7.95.05,11.3.03,3.35.09,6.38.16,9.1.07,2.16.98,3.52,2.72,4.08l11.62,3.45.31,4.5c-8.3-.21-16.61-.31-24.91-.31s-17.09.1-25.95.31l-.42-4.5,12.87-3.87c1.74-.49,2.69-1.57,2.83-3.24.07-2.79.12-5.91.16-9.37.03-3.45.05-7.27.05-11.46v-84.87c0-3.56-.02-6.77-.05-9.63-.04-2.86-.09-5.44-.16-7.74-.07-1.81-.91-3-2.51-3.56l-12.98-4.08-.21-4.5c9,.28,17.79.42,26.38.42,1.69,0,3.84-.05,6.45-.16s5.78-.23,9.52-.37c3.81-.14,6.98-.24,9.52-.31,2.54-.07,4.55-.1,6.03-.1,16.07,0,28.13,3,36.17,9,8.04,6,12.06,14.76,12.06,26.27,0,10.4-2.76,18.82-8.28,25.27-5.52,6.45-13.93,11.42-25.25,14.91,4.45,6.7,8.56,13.17,12.3,19.41,3.75,6.24,7.23,11.97,10.45,17.16,3.22,5.2,6.16,9.79,8.84,13.76s5.17,7.12,7.47,9.42c1.19,1.19,2.37,2.22,3.56,3.09,1.19.87,2.42,1.59,3.72,2.15,1.29.56,2.65,1.05,4.08,1.47,1.43.42,3.02.84,4.76,1.26l.31,4.6c-5.02.63-9.25.94-12.66.94-2.86,0-5.38-.07-7.55-.21-2.17-.14-4.1-.42-5.8-.84s-3.24-.96-4.62-1.62c-1.38-.66-2.74-1.52-4.08-2.56-2.9-2.16-5.75-5.28-8.54-9.37-2.79-4.08-5.69-8.7-8.7-13.87-3.01-5.16-6.13-10.66-9.39-16.48-3.25-5.82-6.68-11.53-10.29-17.11-1.06-1.67-1.96-3-2.71-3.98-.74-.98-1.56-1.74-2.44-2.3-.89-.56-1.91-.94-3.08-1.15s-2.67-.35-4.51-.42l-7.32-.21v36.31Zm0-44.16c4.26.21,8.2.31,11.83.31,12.07,0,20.91-2.56,26.53-7.69,5.62-5.13,8.42-13.17,8.42-24.12s-2.69-18.35-8.06-23.23c-5.37-4.88-13.78-7.33-25.22-7.33-1.95,0-4.05.07-6.28.21-2.23.14-4.64.35-7.22.63v61.22Z"/>
  <path class="cls-26" d="m525.94,155.92c0,24.14-6.85,43.55-20.55,58.24-13.7,14.69-32.86,22.03-57.47,22.03s-41.43-6.78-54.22-20.35c-12.79-13.57-19.19-31.94-19.19-55.1s6.88-43.24,20.65-57.3c13.77-14.06,32.86-21.09,57.26-21.09s41.54,6.58,54.33,19.73c12.79,13.15,19.19,31.1,19.19,53.84Zm-128.51,1.36c0,22.75,4.6,40.17,13.81,52.27,9.21,12.11,22.71,18.16,40.5,18.16s30.44-5.49,38.77-16.48c8.34-10.99,12.51-28.24,12.51-51.75,0-22.05-4.43-39-13.29-50.86-8.86-11.86-22.54-17.79-41.02-17.79s-30.96,5.49-39.09,16.48c-8.13,10.99-12.19,27.65-12.19,49.97Z"/>
  <path class="cls-35" d="m675.59,233.15l-36.73-111.45-38.41,110.62-10.57.84-41.86-128.51c-1.12-3.28-2.39-5.81-3.82-7.59-1.43-1.78-3.44-3.05-6.02-3.82l-9.52-2.93-.21-4.5c6.84.28,14.93.42,24.28.42,8.44,0,18-.14,28.67-.42l.42,4.5-9.84,2.83c-1.47.35-2.51.87-3.14,1.57-.63.7-.94,1.71-.94,3.03,0,1.4.33,3.23.99,5.49.66,2.27,1.55,5.25,2.67,8.95l28.36,89.9,38.83-116.06,9.42-.73,37.78,117.84,29.51-90.84c1.26-3.98,2.23-7.15,2.93-9.52.7-2.37,1.05-4.19,1.05-5.44s-.31-2.16-.94-2.72c-.63-.56-1.64-1.01-3.03-1.36l-9.84-2.62-.21-4.81c7.53.28,15.17.42,22.92.42s14.86-.14,21.98-.42l.42,4.5-10.57,3.35c-2.09.63-3.75,1.61-4.97,2.93-1.22,1.33-2.42,3.63-3.61,6.91l-45.42,128.83-10.57.84Z"/>
  <path class="cls-20" d="m783.28,115.63v84.56c0,8.23.07,15.07.21,20.51.07,1.95.94,3.14,2.62,3.56l12.45,3.66.21,4.71c-8.72-.21-15.87-.31-21.45-.31s-12.66.1-21.66.31l-.42-4.5,12.87-3.87c1.81-.56,2.76-1.64,2.83-3.24.14-5.65.21-12.59.21-20.83v-84.87c0-6.98-.07-12.77-.21-17.37-.07-1.81-.91-3-2.51-3.56l-12.98-4.08-.21-4.5c9,.28,16.12.42,21.35.42,3.14,0,6.31-.14,9.52-.42l87.91,109.78v-80.69c0-6.77-.07-12.59-.21-17.48-.07-1.6-.98-2.69-2.72-3.24l-12.35-3.56-.21-4.81c8.93.28,16.15.42,21.66.42s12.73-.14,21.45-.42l.42,4.5-13.19,4.08c-1.61.56-2.44,1.74-2.51,3.56-.14,4.6-.21,10.4-.21,17.37v117l-8.79.84-94.08-117.52Z"/>
  <path class="cls-9" d="m118.17,334.26c0,2.04,0,3.9.03,5.56.02,1.67.04,3.18.08,4.54.03.85.63,1.43,1.79,1.74l5.77,1.79.1,2.2c-4.39-.1-8.61-.15-12.66-.15s-8.34.05-12.66.15l-.2-2.2,6.28-1.89c.85-.24,1.31-.77,1.38-1.58.03-1.36.06-2.88.08-4.57.02-1.68.03-3.55.03-5.59v-41.4c0-1.74,0-3.3-.03-4.7-.02-1.39-.04-2.65-.08-3.78-.03-.88-.44-1.46-1.23-1.74l-6.33-1.99-.1-2.2c4.39.14,8.61.2,12.66.2s8.3-.07,12.66-.2l.2,2.2-6.33,1.89c-.82.2-1.26.73-1.33,1.58-.03,1.19-.06,2.49-.08,3.91-.02,1.41-.03,2.95-.03,4.62v41.61Z"/>
  <path class="cls-22" d="m148.34,293.01v41.25c0,4.02.03,7.35.1,10.01.03.95.46,1.53,1.28,1.74l6.07,1.79.1,2.3c-4.26-.1-7.74-.15-10.47-.15s-6.18.05-10.57.15l-.2-2.2,6.28-1.89c.88-.27,1.34-.8,1.38-1.58.07-2.76.1-6.14.1-10.16v-41.4c0-3.4-.03-6.23-.1-8.47-.03-.88-.44-1.46-1.23-1.74l-6.33-1.99-.1-2.2c4.39.14,7.86.2,10.41.2,1.53,0,3.08-.07,4.65-.2l42.88,53.55v-39.36c0-3.3-.03-6.14-.1-8.53-.03-.78-.48-1.31-1.33-1.58l-6.02-1.74-.1-2.35c4.36.14,7.88.2,10.57.2s6.21-.07,10.47-.2l.2,2.2-6.43,1.99c-.78.27-1.19.85-1.23,1.74-.07,2.25-.1,5.07-.1,8.47v57.07l-4.29.41-45.89-57.33Z"/>
  <path class="cls-36" d="m241.4,349.93c-4.19,0-8.82.05-13.89.15l-.2-2.2,7.56-2.25c.85-.24,1.29-.77,1.33-1.58.07-2.59.1-5.89.1-9.9v-50.95h-18.02l-4.54,13.58-2.04.36-1.33-18.28.36-.41c8.37.14,16.39.2,24.04.2h13.63c7.62,0,15.67-.07,24.15-.2l.31.41-3.22,17.92-2.04.36-3.27-13.94h-18.02v50.95c0,4.02.03,7.32.1,9.9.03.82.48,1.35,1.33,1.58l7.56,2.25.1,2.2c-5.28-.1-9.94-.15-13.99-.15Z"/>
  <path class="cls-24" d="m291.02,278.67h12.41c7.62,0,15.67-.07,24.15-.2l.31.41-2.96,15.77-2.04.36-3.17-11.79h-23.59v28.08h4.65c3.54,0,7.49-.03,11.84-.1.88-.03,1.46-.48,1.74-1.33l1.79-6.89,2.76-.1c-.1,4.77-.15,8.29-.15,10.57s.05,5.68.15,10.41l-2.76.2-1.84-6.99c-.27-.88-.8-1.34-1.58-1.38-4.42-.07-8.42-.1-12-.1h-4.59v18.58c0,3.78.03,7.5.1,11.18h24.5l6.23-12.97,2.3-.41-1.12,17.77-.36.36c-8.82-.1-16.95-.15-24.4-.15h-12.15c-4.12,0-8.34.05-12.66.15l-.2-2.2,6.28-1.89c.85-.24,1.31-.77,1.38-1.58.03-1.36.06-2.88.08-4.57.02-1.68.03-3.55.03-5.59v-41.4c0-1.74,0-3.3-.03-4.7-.02-1.39-.04-2.65-.08-3.78-.03-.88-.44-1.46-1.23-1.74l-6.33-1.99-.1-2.2c4.39.14,8.61.2,12.66.2Z"/>
  <path class="cls-14" d="m356.82,334.26c0,2.04,0,3.88.03,5.51.02,1.63.04,3.11.08,4.44.03,1.06.48,1.72,1.33,1.99l5.67,1.68.15,2.2c-4.05-.1-8.1-.15-12.15-.15s-8.34.05-12.66.15l-.2-2.2,6.28-1.89c.85-.24,1.31-.77,1.38-1.58.03-1.36.06-2.88.08-4.57.02-1.68.03-3.55.03-5.59v-41.4c0-1.74,0-3.3-.03-4.7-.02-1.39-.04-2.65-.08-3.78-.03-.88-.44-1.46-1.23-1.74l-6.33-1.99-.1-2.2c4.39.14,8.68.2,12.87.2.82,0,1.87-.03,3.15-.08,1.27-.05,2.82-.11,4.64-.18,1.86-.07,3.4-.12,4.64-.15,1.24-.03,2.22-.05,2.94-.05,7.84,0,13.72,1.46,17.64,4.39,3.92,2.93,5.88,7.2,5.88,12.81,0,5.07-1.35,9.18-4.04,12.33-2.69,3.15-6.8,5.57-12.32,7.27,2.17,3.27,4.17,6.42,6,9.47,1.83,3.05,3.53,5.84,5.1,8.37,1.57,2.54,3.01,4.77,4.31,6.71,1.31,1.94,2.52,3.47,3.64,4.59.58.58,1.16,1.08,1.74,1.51.58.43,1.18.77,1.81,1.05.63.27,1.29.51,1.99.71.7.2,1.47.41,2.32.61l.15,2.25c-2.45.31-4.51.46-6.18.46-1.4,0-2.62-.03-3.68-.1-1.06-.07-2-.2-2.83-.41-.83-.2-1.58-.47-2.25-.79-.67-.32-1.34-.74-1.99-1.25-1.41-1.05-2.8-2.58-4.17-4.57s-2.78-4.24-4.24-6.76c-1.47-2.52-2.99-5.2-4.58-8.04-1.59-2.84-3.26-5.62-5.02-8.35-.52-.82-.96-1.46-1.32-1.94-.36-.48-.76-.85-1.19-1.12-.43-.27-.93-.46-1.5-.56-.57-.1-1.3-.17-2.2-.2l-3.57-.1v17.71Zm0-21.54c2.08.1,4,.15,5.77.15,5.89,0,10.2-1.25,12.94-3.75,2.74-2.5,4.11-6.42,4.11-11.77s-1.31-8.95-3.93-11.33c-2.62-2.38-6.72-3.57-12.3-3.57-.95,0-1.97.03-3.06.1-1.09.07-2.26.17-3.52.31v29.86Z"/>
  <path class="cls-12" d="m417.47,293.01v41.25c0,4.02.03,7.35.1,10.01.03.95.46,1.53,1.28,1.74l6.07,1.79.1,2.3c-4.26-.1-7.74-.15-10.47-.15s-6.18.05-10.57.15l-.2-2.2,6.28-1.89c.88-.27,1.34-.8,1.38-1.58.07-2.76.1-6.14.1-10.16v-41.4c0-3.4-.03-6.23-.1-8.47-.03-.88-.44-1.46-1.23-1.74l-6.33-1.99-.1-2.2c4.39.14,7.86.2,10.41.2,1.53,0,3.08-.07,4.65-.2l42.88,53.55v-39.36c0-3.3-.03-6.14-.1-8.53-.03-.78-.48-1.31-1.33-1.58l-6.02-1.74-.1-2.35c4.36.14,7.88.2,10.57.2s6.21-.07,10.47-.2l.2,2.2-6.43,1.99c-.78.27-1.19.85-1.23,1.74-.07,2.25-.1,5.07-.1,8.47v57.07l-4.29.41-45.89-57.33Z"/>
  <path class="cls-37" d="m516.87,277.39l22.67,62.43c.85,2.35,1.62,3.94,2.32,4.77.7.83,1.69,1.45,2.99,1.86l4.8,1.43.1,2.2c-4.46-.1-8.59-.15-12.41-.15s-8.46.05-13.73.15l-.2-2.2,4.85-1.43c.68-.24,1.17-.5,1.45-.79s.43-.74.43-1.35c0-.68-.18-1.57-.54-2.68-.36-1.11-.86-2.58-1.51-4.42l-4.8-13.68h-24.61l-5.36,13.63c-.71,1.91-1.28,3.42-1.68,4.54s-.61,2.01-.61,2.65c0,.58.16,1.01.48,1.3.32.29.81.54,1.45.74l4.75,1.38.1,2.3c-4.83-.1-8.78-.15-11.84-.15s-6.48.05-10.26.15l-.26-2.2,5.16-1.58c1.29-.41,2.25-1.04,2.86-1.89.61-.85,1.29-2.18,2.04-3.98l26.09-62.28,5.26-.77Zm-16.28,41.5h21.03l-9.95-28.13-11.08,28.13Z"/>
  <path class="cls-38" d="m575.93,349.93c-4.19,0-8.82.05-13.89.15l-.2-2.2,7.56-2.25c.85-.24,1.29-.77,1.33-1.58.07-2.59.1-5.89.1-9.9v-50.95h-18.02l-4.54,13.58-2.04.36-1.33-18.28.36-.41c8.37.14,16.39.2,24.04.2h13.63c7.62,0,15.67-.07,24.15-.2l.31.41-3.22,17.92-2.04.36-3.27-13.94h-18.02v50.95c0,4.02.03,7.32.1,9.9.03.82.48,1.35,1.33,1.58l7.56,2.25.1,2.2c-5.28-.1-9.94-.15-13.99-.15Z"/>
  <path class="cls-6" d="m630.66,334.26c0,2.04,0,3.9.03,5.56.02,1.67.04,3.18.08,4.54.03.85.63,1.43,1.79,1.74l5.77,1.79.1,2.2c-4.39-.1-8.61-.15-12.66-.15s-8.34.05-12.66.15l-.2-2.2,6.28-1.89c.85-.24,1.31-.77,1.38-1.58.03-1.36.06-2.88.08-4.57.02-1.68.03-3.55.03-5.59v-41.4c0-1.74,0-3.3-.03-4.7-.02-1.39-.04-2.65-.08-3.78-.03-.88-.44-1.46-1.23-1.74l-6.33-1.99-.1-2.2c4.39.14,8.61.2,12.66.2s8.3-.07,12.66-.2l.2,2.2-6.33,1.89c-.82.2-1.26.73-1.33,1.58-.03,1.19-.06,2.49-.08,3.91-.02,1.41-.03,2.95-.03,4.62v41.61Z"/>
  <path class="cls-3" d="m722.39,312.67c0,11.78-3.34,21.25-10.02,28.41-6.68,7.16-16.03,10.75-28.03,10.75s-20.21-3.31-26.45-9.93c-6.24-6.62-9.36-15.58-9.36-26.88s3.36-21.09,10.07-27.95c6.72-6.86,16.03-10.29,27.93-10.29s20.26,3.21,26.5,9.62c6.24,6.42,9.36,15.17,9.36,26.27Zm-62.69.66c0,11.1,2.25,19.6,6.74,25.5,4.49,5.91,11.08,8.86,19.76,8.86s14.85-2.68,18.91-8.04c4.07-5.36,6.1-13.77,6.1-25.24,0-10.75-2.16-19.02-6.48-24.81-4.32-5.79-10.99-8.68-20.01-8.68s-15.1,2.68-19.07,8.04c-3.97,5.36-5.95,13.49-5.95,24.38Z"/>
  <path class="cls-16" d="m744.91,293.01v41.25c0,4.02.03,7.35.1,10.01.03.95.46,1.53,1.28,1.74l6.07,1.79.1,2.3c-4.26-.1-7.74-.15-10.47-.15s-6.18.05-10.57.15l-.2-2.2,6.28-1.89c.88-.27,1.34-.8,1.38-1.58.07-2.76.1-6.14.1-10.16v-41.4c0-3.4-.03-6.23-.1-8.47-.03-.88-.44-1.46-1.23-1.74l-6.33-1.99-.1-2.2c4.39.14,7.86.2,10.41.2,1.53,0,3.08-.07,4.65-.2l42.88,53.55v-39.36c0-3.3-.03-6.14-.1-8.53-.03-.78-.48-1.31-1.33-1.58l-6.02-1.74-.1-2.35c4.36.14,7.88.2,10.57.2s6.21-.07,10.47-.2l.2,2.2-6.43,1.99c-.78.27-1.19.85-1.23,1.74-.07,2.25-.1,5.07-.1,8.47v57.07l-4.29.41-45.89-57.33Z"/>
  <path class="cls-2" d="m844.3,277.39l22.67,62.43c.85,2.35,1.62,3.94,2.32,4.77.7.83,1.69,1.45,2.99,1.86l4.8,1.43.1,2.2c-4.46-.1-8.59-.15-12.41-.15s-8.46.05-13.73.15l-.2-2.2,4.85-1.43c.68-.24,1.17-.5,1.45-.79s.43-.74.43-1.35c0-.68-.18-1.57-.54-2.68-.36-1.11-.86-2.58-1.51-4.42l-4.8-13.68h-24.61l-5.36,13.63c-.71,1.91-1.28,3.42-1.68,4.54s-.61,2.01-.61,2.65c0,.58.16,1.01.48,1.3.32.29.81.54,1.45.74l4.75,1.38.1,2.3c-4.83-.1-8.78-.15-11.84-.15s-6.48.05-10.26.15l-.26-2.2,5.16-1.58c1.29-.41,2.25-1.04,2.86-1.89.61-.85,1.29-2.18,2.04-3.98l26.09-62.28,5.26-.77Zm-16.28,41.5h21.03l-9.95-28.13-11.08,28.13Z"/>
  <path class="cls-4" d="m899.08,292.66v41.5c0,3.78.03,7.5.1,11.18h24.86l6.53-13.53,2.3-.36-1.12,18.28-.31.36c-8.82-.1-16.97-.15-24.45-.15h-12.81c-4.12,0-8.34.05-12.66.15l-.2-2.2,6.28-1.89c.85-.24,1.31-.77,1.38-1.58.03-1.36.06-2.88.08-4.57.02-1.68.03-3.55.03-5.59v-41.4c0-1.74,0-3.3-.03-4.7-.02-1.39-.04-2.65-.08-3.78-.03-.88-.44-1.46-1.23-1.74l-6.33-1.99-.1-2.2c4.39.14,8.61.2,12.66.2s8.3-.07,12.66-.2l.2,2.2-6.33,1.89c-.82.2-1.26.73-1.33,1.58-.03,1.19-.06,2.93-.08,5.21-.02,2.28-.03,3.39-.03,3.32Z"/>
  <path class="cls-34" d="m117.91,467.55c-2.93,0-6.17.04-9.72.11l-.14-1.54,5.29-1.57c.59-.17.9-.54.93-1.11.05-1.81.07-4.12.07-6.93v-35.66h-12.61l-3.18,9.51-1.43.25-.93-12.79.25-.29c5.86.1,11.47.14,16.83.14h9.54c5.34,0,10.97-.05,16.9-.14l.21.29-2.25,12.54-1.43.25-2.29-9.76h-12.61v35.66c0,2.81.02,5.12.07,6.93.02.57.33.94.93,1.11l5.29,1.57.07,1.54c-3.69-.07-6.96-.11-9.79-.11Z"/>
  <path class="cls-8" d="m152.64,417.67h8.68c5.34,0,10.97-.05,16.9-.14l.21.29-2.07,11.04-1.43.25-2.22-8.25h-16.51v19.65h3.25c2.48,0,5.24-.02,8.29-.07.62-.02,1.02-.33,1.21-.93l1.25-4.82,1.93-.07c-.07,3.34-.11,5.8-.11,7.4s.04,3.98.11,7.29l-1.93.14-1.29-4.9c-.19-.62-.56-.94-1.11-.96-3.1-.05-5.9-.07-8.4-.07h-3.22v13.01c0,2.64.02,5.25.07,7.83h17.15l4.36-9.08,1.61-.29-.79,12.44-.25.25c-6.17-.07-11.86-.11-17.08-.11h-8.5c-2.88,0-5.84.04-8.86.11l-.14-1.54,4.4-1.32c.59-.17.92-.54.96-1.11.02-.95.04-2.02.05-3.2.01-1.18.02-2.48.02-3.91v-28.98c0-1.21,0-2.31-.02-3.29-.01-.98-.03-1.86-.05-2.64-.02-.62-.31-1.02-.86-1.21l-4.43-1.39-.07-1.54c3.07.1,6.03.14,8.86.14Z"/>
  <path class="cls-18" d="m223.54,430l-1.43.21-2.61-9.4c-2.95-.74-5.63-1.11-8.04-1.11-5.84,0-10.42,2.04-13.76,6.11-3.34,4.07-5,9.36-5,15.87,0,6.96,1.91,12.51,5.72,16.65,3.81,4.15,9.09,6.22,15.83,6.22,3.79,0,7.78-.73,11.97-2.18l.39,1.61c-4.69,3.24-10.01,4.86-15.94,4.86-7.7,0-13.92-2.35-18.67-7.04-4.75-4.69-7.13-10.87-7.13-18.55,0-8.17,2.61-14.64,7.84-19.4,5.23-4.76,12.04-7.15,20.42-7.15,4.03,0,8.15.49,12.36,1.47l.25.29-2.22,11.54Z"/>
  <path class="cls-25" d="m244.95,442.82v13.76c0,2.81.02,5.17.07,7.08.02.64.33,1.05.93,1.21l3.97,1.25.11,1.54c-2.84-.07-5.67-.11-8.5-.11s-5.79.04-8.86.11l-.14-1.54,4.4-1.32c.62-.19.94-.56.96-1.11.05-1.93.07-4.3.07-7.11v-28.98c0-2.38-.02-4.36-.07-5.93-.02-.62-.31-1.02-.86-1.21l-4.43-1.39-.07-1.54c3.07.1,6.03.14,8.86.14s5.68-.05,8.47-.14l.18,1.54-4.07,1.25c-.6.14-.91.51-.93,1.11-.05,1.72-.07,3.73-.07,6.04v12.11h26.02v-12.11c0-2.31-.02-4.32-.07-6.04-.02-.59-.33-.96-.93-1.11l-3.97-1.25-.07-1.54c2.91.1,5.78.14,8.61.14s5.74-.05,8.72-.14l.14,1.54-4.5,1.39c-.55.19-.83.6-.86,1.21-.05,1.57-.07,3.55-.07,5.93v28.98c0,2.81.02,5.18.07,7.11.02.55.34.92.96,1.11l4.32,1.32.07,1.54c-3.14-.07-6.15-.11-9.01-.11s-5.61.04-8.33.11l-.14-1.54,4.04-1.25c.59-.17.9-.57.93-1.21.05-1.91.07-4.26.07-7.08v-13.76h-26.02Z"/>
  <path class="cls-33" d="m299.09,427.71v28.87c0,2.81.02,5.15.07,7,.02.67.32,1.07.89,1.21l4.25,1.25.07,1.61c-2.98-.07-5.42-.11-7.33-.11s-4.32.04-7.4.11l-.14-1.54,4.4-1.32c.62-.19.94-.56.96-1.11.05-1.93.07-4.3.07-7.11v-28.98c0-2.38-.02-4.36-.07-5.93-.02-.62-.31-1.02-.86-1.21l-4.43-1.39-.07-1.54c3.07.1,5.5.14,7.29.14,1.07,0,2.16-.05,3.25-.14l30.02,37.49v-27.55c0-2.31-.02-4.3-.07-5.97-.02-.55-.33-.92-.93-1.11l-4.22-1.21-.07-1.64c3.05.1,5.51.14,7.4.14s4.35-.05,7.33-.14l.14,1.54-4.5,1.39c-.55.19-.83.6-.86,1.21-.05,1.57-.07,3.55-.07,5.93v39.95l-3,.29-32.13-40.13Z"/>
  <path class="cls-23" d="m397,441.47c0,8.24-2.34,14.87-7.02,19.89-4.68,5.02-11.22,7.52-19.62,7.52s-14.15-2.32-18.52-6.95c-4.37-4.63-6.55-10.9-6.55-18.81s2.35-14.76,7.05-19.56c4.7-4.8,11.22-7.2,19.55-7.2s14.18,2.25,18.55,6.74c4.37,4.49,6.55,10.62,6.55,18.39Zm-43.88.46c0,7.77,1.57,13.72,4.72,17.85,3.14,4.13,7.75,6.2,13.83,6.2s10.39-1.88,13.24-5.63c2.85-3.75,4.27-9.64,4.27-17.67,0-7.53-1.51-13.32-4.54-17.37-3.03-4.05-7.7-6.07-14.01-6.07s-10.57,1.88-13.35,5.63c-2.78,3.75-4.16,9.44-4.16,17.06Z"/>
  <path class="cls-19" d="m416.51,427.46v29.05c0,2.64.02,5.25.07,7.83h17.4l4.57-9.47,1.61-.25-.79,12.79-.21.25c-6.17-.07-11.88-.11-17.12-.11h-8.97c-2.88,0-5.84.04-8.86.11l-.14-1.54,4.4-1.32c.59-.17.92-.54.96-1.11.02-.95.04-2.02.05-3.2.01-1.18.02-2.48.02-3.91v-28.98c0-1.21,0-2.31-.02-3.29-.01-.98-.03-1.86-.05-2.64-.02-.62-.31-1.02-.86-1.21l-4.43-1.39-.07-1.54c3.07.1,6.03.14,8.86.14s5.81-.05,8.86-.14l.14,1.54-4.43,1.32c-.57.14-.88.51-.93,1.11-.02.83-.04,2.05-.05,3.64-.01,1.6-.02,2.37-.02,2.32Z"/>
  <path class="cls-39" d="m495.63,441.47c0,8.24-2.34,14.87-7.02,19.89-4.68,5.02-11.22,7.52-19.62,7.52s-14.15-2.32-18.52-6.95c-4.37-4.63-6.55-10.9-6.55-18.81s2.35-14.76,7.05-19.56c4.7-4.8,11.22-7.2,19.55-7.2s14.18,2.25,18.55,6.74c4.37,4.49,6.55,10.62,6.55,18.39Zm-43.88.46c0,7.77,1.57,13.72,4.72,17.85,3.14,4.13,7.75,6.2,13.83,6.2s10.39-1.88,13.24-5.63c2.85-3.75,4.27-9.64,4.27-17.67,0-7.53-1.51-13.32-4.54-17.37-3.03-4.05-7.7-6.07-14.01-6.07s-10.57,1.88-13.35,5.63c-2.78,3.75-4.16,9.44-4.16,17.06Z"/>
  <path class="cls-28" d="m541.58,430l-1.43.21-2.47-9.36c-2.91-.76-5.63-1.14-8.18-1.14-5.96,0-10.6,2.02-13.94,6.06-3.34,4.04-5,9.61-5,16.71s1.81,12.87,5.44,17.1c3.63,4.23,8.52,6.34,14.66,6.34,2.06,0,4.09-.26,6.09-.79v-9.54c0-1.19,0-2.27-.02-3.25-.01-.98-.03-1.87-.05-2.68-.02-.62-.31-1.01-.86-1.18l-4.43-1.39-.07-1.54c3.07.07,6.02.11,8.84.11s5.64-.04,8.31-.11l.18,1.54-3.9,1.14c-.57.19-.88.56-.93,1.11-.02.95-.04,1.92-.05,2.91-.01.99-.02,2.05-.02,3.2v11.44l-.21.25c-4.87,1.17-9.34,1.75-13.41,1.75-8.37,0-15.03-2.22-19.98-6.65s-7.42-10.61-7.42-18.55c0-8.43,2.57-15.04,7.72-19.82,5.15-4.78,12.16-7.16,21.05-7.16,3.84,0,7.86.49,12.08,1.47l.21.29-2.22,11.54Z"/>
  <path class="cls-5" d="m566.42,456.58c0,1.43,0,2.73.02,3.9.01,1.17.03,2.23.05,3.18.02.6.44,1,1.25,1.21l4.04,1.25.07,1.54c-3.07-.07-6.03-.11-8.86-.11s-5.84.04-8.86.11l-.14-1.54,4.4-1.32c.59-.17.92-.54.96-1.11.02-.95.04-2.02.05-3.2.01-1.18.02-2.48.02-3.91v-28.98c0-1.21,0-2.31-.02-3.29-.01-.98-.03-1.86-.05-2.64-.02-.62-.31-1.02-.86-1.21l-4.43-1.39-.07-1.54c3.07.1,6.03.14,8.86.14s5.81-.05,8.86-.14l.14,1.54-4.43,1.32c-.57.14-.88.51-.93,1.11-.02.83-.04,1.75-.05,2.73-.01.99-.02,2.07-.02,3.23v29.12Z"/>
  <path class="cls-31" d="m587.72,417.67h8.68c5.34,0,10.97-.05,16.9-.14l.21.29-2.07,11.04-1.43.25-2.22-8.25h-16.51v19.65h3.25c2.48,0,5.24-.02,8.29-.07.62-.02,1.02-.33,1.21-.93l1.25-4.82,1.93-.07c-.07,3.34-.11,5.8-.11,7.4s.04,3.98.11,7.29l-1.93.14-1.29-4.9c-.19-.62-.56-.94-1.11-.96-3.1-.05-5.9-.07-8.4-.07h-3.22v13.01c0,2.64.02,5.25.07,7.83h17.15l4.36-9.08,1.61-.29-.79,12.44-.25.25c-6.17-.07-11.86-.11-17.08-.11h-8.5c-2.88,0-5.84.04-8.86.11l-.14-1.54,4.4-1.32c.59-.17.92-.54.96-1.11.02-.95.04-2.02.05-3.2.01-1.18.02-2.48.02-3.91v-28.98c0-1.21,0-2.31-.02-3.29-.01-.98-.03-1.86-.05-2.64-.02-.62-.31-1.02-.86-1.21l-4.43-1.39-.07-1.54c3.07.1,6.03.14,8.86.14Z"/>
  <path class="cls-32" d="m646.14,420.78c-2.5-.83-4.8-1.25-6.9-1.25-3.14,0-5.65.76-7.52,2.29-1.87,1.53-2.81,3.64-2.81,6.36,0,1.55.33,2.91.98,4.07.65,1.17,1.54,2.19,2.64,3.07,1.11.88,2.36,1.67,3.77,2.36,1.41.69,2.86,1.37,4.36,2.04,1.64.71,3.24,1.47,4.79,2.27,1.55.8,2.95,1.73,4.2,2.81s2.25,2.36,3,3.86,1.13,3.25,1.13,5.25c0,4.74-1.85,8.36-5.56,10.86-3.7,2.5-8.5,3.75-14.38,3.75-3.79,0-7.98-.64-12.58-1.93l-.21-.29,1.75-12.15,1.61-.25,2.5,10.15c2.52,1,5.11,1.5,7.75,1.5,3.55,0,6.32-.79,8.31-2.36,1.99-1.57,2.98-3.81,2.98-6.72,0-1.52-.32-2.86-.96-4.02-.64-1.16-1.51-2.15-2.59-2.98-1.08-.83-2.32-1.59-3.7-2.27-1.38-.68-2.81-1.35-4.29-2.02-1.67-.71-3.29-1.49-4.86-2.32-1.57-.83-3-1.8-4.27-2.91-1.27-1.11-2.29-2.47-3.06-4.07-.76-1.61-1.14-3.48-1.14-5.63,0-4.31,1.8-7.65,5.41-10.01s8.08-3.54,13.42-3.54c3.76,0,7.71.44,11.83,1.32l.25.25-2.11,11.15-1.43.25-2.32-8.9Z"/>
  <path class="cls-17" d="m695.39,481.03c-10.77-9.13-16.15-20.7-16.15-34.73s5.38-25.75,16.15-34.88l1.54,1.36c-7.6,8.46-11.4,19.58-11.4,33.38s3.8,25.06,11.4,33.52l-1.54,1.36Z"/>
  <path class="cls-11" d="m716.44,456.58c0,1.43,0,2.72.02,3.86.01,1.14.03,2.17.05,3.07.02.55.33.92.93,1.11l4.93,1.5.07,1.54c-3.45-.07-6.6-.11-9.43-.11s-5.84.04-8.86.11l-.14-1.54,4.4-1.32c.62-.19.94-.56.96-1.11.02-.95.04-2.02.05-3.2.01-1.18.02-2.48.02-3.91v-28.98c0-1.21,0-2.31-.02-3.29-.01-.98-.03-1.86-.05-2.64-.02-.62-.31-1.02-.86-1.21l-4.43-1.39-.07-1.54c3.07.1,6.07.14,9,.14,1.97,0,3.87-.05,5.71-.14,1.84-.09,3.51-.14,5.02-.14,5.64,0,9.91,1.1,12.81,3.31,2.89,2.2,4.34,5.49,4.34,9.84,0,5.12-1.67,9.1-5.02,11.94-3.35,2.84-8.04,4.25-14.08,4.25-1.66,0-3.44-.11-5.34-.32v10.18Zm0-13.19c1.67.29,3.31.43,4.93.43,3.81,0,6.71-.98,8.7-2.95,1.99-1.97,2.98-4.97,2.98-9.02s-.95-6.78-2.84-8.68c-1.89-1.91-4.88-2.86-8.95-2.86-1.6,0-3.2.1-4.82.29v22.8Z"/>
  <path class="cls-29" d="m741.95,434.43c3,.07,5.67.11,8,.11,2.14,0,4.72-.04,7.72-.11l.14,1.47-4.15,1.14c1.95,5.55,4.22,11.45,6.79,17.69.67,1.64,1.26,3.22,1.79,4.72.52-1.5,1.13-3.06,1.82-4.68,2.17-5.34,4.44-11.24,6.83-17.72l-4.07-1.14-.14-1.47c1.93.07,3.94.11,6.04.11s4.22-.04,6.22-.11l.14,1.47-3.57,1.04c-.55.19-1.01.66-1.39,1.39-1.88,4.36-4.07,9.55-6.56,15.56-2.49,6.02-4.37,10.66-5.63,13.92l-3.04.32c-1.31-3.45-3.2-8.18-5.66-14.19s-4.58-11.15-6.34-15.44c-.38-.83-.91-1.37-1.57-1.61l-3.29-1-.07-1.47Z"/>
  <path class="cls-21" d="m791.34,438.32c-.14,8.05-.21,14.54-.21,19.48,0,2.48.37,4.19,1.11,5.13.74.94,2.14,1.41,4.22,1.41,1.64,0,3.79-.21,6.43-.64l.21,1.61c-4.12,2.07-7.8,3.11-11.04,3.11-2.64,0-4.6-.7-5.89-2.09s-1.93-3.5-1.93-6.31c0-4.62.08-11.92.25-21.91l-4.93-1.21-.21-1.47,5.51-.46,2.52-8.65c1.36-.36,2.6-.7,3.73-1.04l.36.25c-.07,2.88-.11,5.57-.11,8.08v1.32h10.76v3.39h-10.76Z"/>
  <path class="cls-10" d="m809.35,411.41c10.77,9.13,16.15,20.7,16.15,34.73s-5.38,25.75-16.15,34.88l-1.54-1.36c7.6-8.46,11.4-19.58,11.4-33.38s-3.8-25.06-11.4-33.52l1.54-1.36Z"/>
  <path class="cls-7" d="m847.15,427.46v29.05c0,2.64.02,5.25.07,7.83h17.4l4.57-9.47,1.61-.25-.79,12.79-.21.25c-6.17-.07-11.88-.11-17.12-.11h-8.97c-2.88,0-5.84.04-8.86.11l-.14-1.54,4.4-1.32c.59-.17.92-.54.96-1.11.02-.95.04-2.02.05-3.2.01-1.18.02-2.48.02-3.91v-28.98c0-1.21,0-2.31-.02-3.29-.01-.98-.03-1.86-.05-2.64-.02-.62-.31-1.02-.86-1.21l-4.43-1.39-.07-1.54c3.07.1,6.03.14,8.86.14s5.81-.05,8.86-.14l.14,1.54-4.43,1.32c-.57.14-.88.51-.93,1.11-.02.83-.04,2.05-.05,3.64-.01,1.6-.02,2.37-.02,2.32Z"/>
  <path class="cls-15" d="m884.82,438.32c-.14,8.05-.21,14.54-.21,19.48,0,2.48.37,4.19,1.11,5.13.74.94,2.14,1.41,4.22,1.41,1.64,0,3.79-.21,6.43-.64l.21,1.61c-4.12,2.07-7.8,3.11-11.04,3.11-2.64,0-4.6-.7-5.89-2.09s-1.93-3.5-1.93-6.31c0-4.62.08-11.92.25-21.91l-4.93-1.21-.21-1.47,5.51-.46,2.52-8.65c1.36-.36,2.6-.7,3.73-1.04l.36.25c-.07,2.88-.11,5.57-.11,8.08v1.32h10.76v3.39h-10.76Z"/>
  <path class="cls-30" d="m919.27,416.24c4.24-.81,8.14-1.66,11.69-2.54l.32.29c-.14,5.1-.21,10.58-.21,16.44v19.44c0,3.29.01,6.54.04,9.76,0,1.21.04,2.19.13,2.93.08.74.29,1.3.63,1.7.33.39.83.66,1.48.8.65.14,1.58.23,2.77.25l.18,1.39c-1.05.41-2.3.81-3.77,1.21-1.47.4-2.46.61-2.99.61-2.41,0-4.03-1.36-4.87-4.07-3.7,2.74-7.29,4.11-10.77,4.11-4.41,0-7.94-1.57-10.57-4.7-2.64-3.13-3.95-6.99-3.95-11.56,0-5.91,1.75-10.48,5.25-13.72,3.5-3.24,8.4-4.86,14.69-4.86,1.52,0,3.23.17,5.11.5,0-5.26-.05-10.39-.14-15.37l-4.82-1.43-.18-1.18Zm5.15,21.3c-1.58-.5-3.34-.75-5.3-.75-4.05,0-7.13,1.16-9.25,3.48s-3.18,5.84-3.18,10.56c0,4.07.94,7.33,2.82,9.77,1.88,2.44,4.54,3.66,7.98,3.66,2.21,0,4.52-.62,6.92-1.86v-24.87Z"/>
  <path class="cls-13" d="m947.75,460.05c1.24,0,2.26.39,3.06,1.16.8.77,1.2,1.79,1.2,3.06s-.4,2.29-1.2,3.09c-.8.8-1.82,1.2-3.06,1.2-1.31,0-2.36-.4-3.14-1.2s-1.18-1.83-1.18-3.09.39-2.28,1.18-3.06c.79-.77,1.83-1.16,3.14-1.16Z"/>
</svg>