<svg id="eIjuV0dLifU1" xmlns="http://www.w3.org/2000/svg" xmlns:xlink="http://www.w3.org/1999/xlink" viewBox="0 0 1920 1291" shape-rendering="geometricPrecision" text-rendering="geometricPrecision">
<style><![CDATA[
#eIjuV0dLifU2 {animation: eIjuV0dLifU2__m 11764.70588235294ms linear infinite normal forwards}@keyframes eIjuV0dLifU2__m { 0% {d: path('M1871.8,235.1C1779.8,265.8,1677.5,225.3,1577.6,193.5C1477.2,162.4,1377.2,138.6,1285.8,169.7C1193.9,200.9,1108.3,283.9,1013.3,288.3C917.8,292.8,810.4,215.6,720.3,255.5C629.5,294.6,553.9,451,463.6,490C372.9,530,265.6,452.8,171.8,466.1C102.4,475.2,39.2,533.2,-23.8,589.5L-23.8,594.8L-23.8,728.5L-23.8,735.7C45.2,739.9,113.8,748.1,179.5,774.7C276.5,815.1,368.9,896.6,462.8,962.6C556.3,1027.5,653.3,1077.2,759.5,1057.3C865.1,1038,981.8,950.9,1086.8,940.1C1191.2,929.2,1285.9,994.8,1379.9,1060.3C1473.3,1125.7,1568,1191.3,1675.4,1163.5C1779.9,1136.8,1898.8,1019.4,2004.4,988.9L2004.4,845.4L2004.4,786.7L2004.4,452.9L2004.4,394.9L2004.4,145.3C1965.9,183.3,1920.1,219.3,1871.8,235.1Z');animation-timing-function: cubic-bezier(0.42,0,0.58,1)} 50% {d: path('M1848.142985,154.796163C1756.142985,185.496163,1700.369124,275.603957,1600.469124,243.803957C1500.069124,212.703957,1420.975839,212.703957,1329.575839,243.803957C1237.675839,275.003957,1122.723321,198.769964,1027.723321,203.169964C932.223321,207.669964,864.344603,345.155456,774.244603,385.055456C683.444603,424.155456,527.862949,328.640887,437.562949,367.640887C346.862949,407.640887,273.3,536.226379,179.5,549.526379C110.1,558.626379,39.2,533.2,-23.8,589.5L-23.8,594.8L-23.8,728.5L-23.8,735.7C45.2,739.9,99.034711,818.8,164.734711,845.4C261.734711,885.8,384.296942,806.663369,478.196942,872.663369C571.696942,937.563369,642.890227,968.026499,749.090227,948.126499C854.690227,928.826499,982.706834,1049.869245,1087.706834,1039.069245C1192.106834,1028.169245,1274.274879,1052.902278,1368.274879,1118.402278C1461.674879,1183.802278,1584.01187,1043.64982,1691.41187,1015.84982C1795.91187,989.14982,1920,1104.857614,2004.4,988.9L2004.4,845.4L2004.4,786.7L2004.4,452.9L2004.4,394.9L2004.4,145.3C1965.9,183.3,1896.442985,138.996163,1848.142985,154.796163Z');animation-timing-function: cubic-bezier(0.42,0,0.58,1)} 100% {d: path('M1871.8,235.1C1779.8,265.8,1677.5,225.3,1577.6,193.5C1477.2,162.4,1377.2,138.6,1285.8,169.7C1193.9,200.9,1108.3,283.9,1013.3,288.3C917.8,292.8,810.4,215.6,720.3,255.5C629.5,294.6,553.9,451,463.6,490C372.9,530,265.6,452.8,171.8,466.1C102.4,475.2,39.2,533.2,-23.8,589.5L-23.8,594.8L-23.8,728.5L-23.8,735.7C45.2,739.9,113.8,748.1,179.5,774.7C276.5,815.1,368.9,896.6,462.8,962.6C556.3,1027.5,653.3,1077.2,759.5,1057.3C865.1,1038,981.8,950.9,1086.8,940.1C1191.2,929.2,1285.9,994.8,1379.9,1060.3C1473.3,1125.7,1568,1191.3,1675.4,1163.5C1779.9,1136.8,1898.8,1019.4,2004.4,988.9L2004.4,845.4L2004.4,786.7L2004.4,452.9L2004.4,394.9L2004.4,145.3C1965.9,183.3,1920.1,219.3,1871.8,235.1Z')}}
]]></style>
<path id="eIjuV0dLifU2" d="M1871.8,235.1c-92,30.7-194.3-9.8-294.2-41.6-100.4-31.1-200.4-54.9-291.8-23.8-91.9,31.2-177.5,114.2-272.5,118.6-95.5,4.5-202.9-72.7-293-32.8C629.5,294.6,553.9,451,463.6,490c-90.7,40-198-37.2-291.8-23.9-69.4,9.1-132.6,67.1-195.6,123.4v5.3v133.7v7.2c69,4.2,137.6,12.4,203.3,39c97,40.4,189.4,121.9,283.3,187.9c93.5,64.9,190.5,114.6,296.7,94.7c105.6-19.3,222.3-106.4,327.3-117.2c104.4-10.9,199.1,54.7,293.1,120.2c93.4,65.4,188.1,131,295.5,103.2c104.5-26.7,223.4-144.1,329-174.6v-143.5-58.7-333.8-58-249.6c-38.5,38-84.3,74-132.6,89.8Z" fill="#f6f2ff"/></svg>
